# xmcd
#
# Track frame offsets:
#	150
#	8692
#	17675
#	35397
#	45875
#	63772
#	75855
#	86237
#	97532
#	108257
#	121032
#	131455
#	145372
#	154372
#	165725
#	179225
#	189307
#	202512
#	212437
#
# Disc length: 2839 seconds
#
# Revision: 1
# Processed by: cddbd v1.5.2PL0 Copyright (c) Steve Scherf et al.
# Submitted via: audiograbber 1.83.01
#
DISCID=dc0b1513
DTITLE=Various Artist - Keep On Indo Rickin'
DYEAR=1999
DGENRE=Indorock
TTITLE0=Danny and Andres - Save The Last Dance For Me
TTITLE1=Andre and The Sky Devils - You Mosted Girl
TTITLE2=Blue Comets - Bony Moronie
TTITLE3=Andy Tielman - Stuck On You
TTITLE4=Peter and The Startlights - Still Loving You
TTITLE5=Roy and The Kiliaan Brothers - You Never Can Tell
TTITLE6=Dixie Aces - Gotta Lot Of Rhythm In My Soul
TTITLE7=East and West Rockers - Can't Believe You Wanna Leave
TTITLE8=Ricky Lee - Wild One
TTITLE9=Shadoogie - You Better Move On
TTITLE10=Rockin' Birds - I'm In Love Again
TTITLE11=Desperates - Your Cheatin' Heart
TTITLE12=Sparks - Heartbeat
TTITLE13=Johnny and The Rockers - Pretend
TTITLE14=Terry Lee - You're Mine
TTITLE15=Danny and The Boys - We Say yeah
TTITLE16=Jumping Strings - Dear One
TTITLE17=Explosion Rockets - Brush Those Tears
TTITLE18=Jingle - Keep On Indo Rockin'
EXTD=
EXTT0=
EXTT1=
EXTT2=
EXTT3=
EXTT4=
EXTT5=
EXTT6=
EXTT7=
EXTT8=
EXTT9=
EXTT10=
EXTT11=
EXTT12=
EXTT13=
EXTT14=
EXTT15=
EXTT16=
EXTT17=
EXTT18=
PLAYORDER=
